<?xml version="1.0" encoding="UTF-8" standalone="no"?>
<svg
   xmlns:dc="http://purl.org/dc/elements/1.1/"
   xmlns:cc="http://creativecommons.org/ns#"
   xmlns:rdf="http://www.w3.org/1999/02/22-rdf-syntax-ns#"
   xmlns:svg="http://www.w3.org/2000/svg"
   xmlns="http://www.w3.org/2000/svg"
   xmlns:sodipodi="http://sodipodi.sourceforge.net/DTD/sodipodi-0.dtd"
   xmlns:inkscape="http://www.inkscape.org/namespaces/inkscape"
   width="210mm"
   height="297mm"
   viewBox="0 0 210 297"
   version="1.1"
   id="svg2444"
   inkscape:version="1.0.2 (e86c870879, 2021-01-15)"
   sodipodi:docname="Chestnut green.svg">
  <defs
     id="defs2438">
    <filter
       inkscape:collect="always"
       style="color-interpolation-filters:sRGB"
       id="filter885"
       x="-0.029032208"
       width="1.0580644"
       y="-0.011522484"
       height="1.023045">
      <feGaussianBlur
         inkscape:collect="always"
         stdDeviation="1.3327154"
         id="feGaussianBlur887" />
    </filter>
  </defs>
  <sodipodi:namedview
     id="base"
     pagecolor="#ffffff"
     bordercolor="#666666"
     borderopacity="1.0"
     inkscape:pageopacity="0.0"
     inkscape:pageshadow="2"
     inkscape:zoom="0.98994949"
     inkscape:cx="478.64562"
     inkscape:cy="345.28172"
     inkscape:document-units="mm"
     inkscape:current-layer="layer1"
     inkscape:document-rotation="0"
     showgrid="false"
     inkscape:window-width="1362"
     inkscape:window-height="675"
     inkscape:window-x="0"
     inkscape:window-y="72"
     inkscape:window-maximized="0" />
  <metadata
     id="metadata2441">
    <rdf:RDF>
      <cc:Work
         rdf:about="">
        <dc:format>image/svg+xml</dc:format>
        <dc:type
           rdf:resource="http://purl.org/dc/dcmitype/StillImage" />
        <dc:title />
      </cc:Work>
    </rdf:RDF>
  </metadata>
  <g
     inkscape:label="Layer 1"
     inkscape:groupmode="layer"
     id="layer1">
    <path
       id="path831"
       style="fill:#000000;fill-opacity:1;stroke:none;stroke-width:0.0844772;stroke-opacity:1;filter:url(#filter885);opacity:0.54669465"
       d="m 73.593715,255.02567 c 4.950193,0.37705 -0.204918,-6.36264 -3.333995,-11.67548 3.564954,0.21034 2.163055,-4.56729 -6.888929,-17.02753 6.020673,1.61472 1.153553,-8.31892 -4.327632,-18.90389 4.23801,1.11289 3.008199,-6.01244 -3.449001,-21.0137 5.507178,2.93074 4.236954,-6.11474 -0.917304,-22.02363 3.995729,3.59929 4.754435,-2.56169 1.978345,-19.38074 5.925992,6.02745 3.37745,-8.24716 3.021006,-17.27023 5.032932,4.47784 5.504712,-6.13768 5.409135,-18.63068 4.191192,5.30409 5.537674,-5.97174 7.418516,-14.133186 4.533554,6.212816 6.73829,-11.714687 9.780323,-20.962928 1.845954,9.953786 3.553431,-6.236374 5.304999,-14.104285 3.570588,8.508198 3.557673,-8.357911 4.863479,-15.886333 3.705371,6.612562 3.618943,-7.223366 5.124505,-12.473978 3.541648,2.756288 2.899728,-5.157921 3.464458,-9.994463 2.6673,4.710181 3.88317,-4.314653 5.70491,-7.605869 0.62772,6.401603 0.25278,16.651805 3.86047,11.615201 -2.03254,12.976151 1.40773,6.30519 2.51055,8.025534 -2.40795,15.642667 1.55373,10.775894 3.61019,12.043719 1.16799,16.734501 4.45208,11.19572 7.31189,10.122767 -0.10685,16.06472 3.84276,10.863194 6.68645,11.459425 0.13166,25.733261 5.21739,11.454943 7.45677,9.635101 -3.88326,23.013685 1.15116,19.146968 6.10665,15.518115 0.25545,10.36838 -1.40252,24.57002 7.37881,17.85802 -3.54134,20.14999 0.10685,19.70706 4.74784,16.4205 -4.29009,17.66224 -1.38587,19.34142 3.74751,16.06822 -4.75378,23.35061 0.93918,15.57573 3.97953,15.7041 -6.45202,13.09132 -8.60067,22.02099 -1.89415,22.38709 -4.78953,16.76449 -1.92561,19.62707 2.59914,19.47286 -6.91739,8.89039 -14.7602,18.16537 -6.66823,20.81789 -14.56881,15.80193 -7.88824,13.93529 -6.15246,16.18018 -8.30833,7.93491 -13.1092,14.46965 -6.41754,16.41658 -5.95964,5.72202 -13.54689,11.9771 -9.29395,14.35435 -6.03283,8.6515 -13.53654,17.00545 -31.14486,23.31521 l -2.06952,0.17433 c -17.432178,-4.60317 -17.058907,-15.71936 -23.559233,-24.32128 3.742128,-1.05118 -0.794804,-6.45395 -5.948672,-12.18099 z"
       sodipodi:nodetypes="ccccccccccccccccccccccccccccccccccccc" />
    <path
       id="rect3021-8"
       style="fill:#96c446;fill-opacity:1;stroke:none;stroke-width:0.0844772;stroke-opacity:1"
       d="m 68.831212,250.79231 c 4.950193,0.37705 -0.204918,-6.36264 -3.333995,-11.67548 3.564954,0.21034 2.163055,-4.56729 -6.888929,-17.02753 6.020673,1.61472 1.153553,-8.31892 -4.327632,-18.90389 4.23801,1.11289 3.008199,-6.01244 -3.449001,-21.0137 5.507178,2.93074 4.236954,-6.11474 -0.917304,-22.02363 3.995729,3.59929 4.754435,-2.56169 1.978345,-19.38074 5.925992,6.02745 3.37745,-8.24716 3.021006,-17.27023 5.032932,4.47784 5.504712,-6.13768 5.409135,-18.63068 4.191192,5.30409 5.537674,-5.971735 7.418516,-14.133162 4.533554,6.212812 6.73829,-11.714687 9.780323,-20.962928 1.845954,9.953786 3.553431,-6.236374 5.304999,-14.104285 3.570588,8.508198 3.557673,-8.357911 4.863479,-15.886333 3.705371,6.612562 3.618943,-7.223366 5.124505,-12.473978 3.541646,2.756288 2.899729,-5.157921 3.464459,-9.994463 2.667279,4.710181 3.883142,-4.314653 5.704882,-7.6058689 0.62772,6.4016029 0.25278,16.6518049 3.86047,11.6152009 -2.03254,12.976151 1.40773,6.30519 2.51055,8.025534 -2.40795,15.642667 1.55373,10.775894 3.61019,12.043719 1.16799,16.734501 4.45208,11.19572 7.31189,10.122767 -0.10685,16.06472 3.84276,10.863194 6.68645,11.459425 0.13166,25.733261 5.21739,11.454943 7.45677,9.635101 -3.88326,23.013685 1.15116,19.146968 6.10665,15.518115 0.25545,10.368362 -1.40252,24.569996 7.37881,17.857996 -3.54134,20.14999 0.10685,19.70706 4.74784,16.4205 -4.29009,17.66224 -1.38587,19.34142 3.74751,16.06822 -4.75378,23.35061 0.93918,15.57573 3.97953,15.7041 -6.45202,13.09132 -8.60067,22.02099 -1.89415,22.38709 -4.78953,16.76449 -1.92561,19.62707 2.59914,19.47286 -6.91739,8.89039 -14.7602,18.16537 -6.66823,20.81789 -14.56881,15.80193 -7.88824,13.93529 -6.15246,16.18018 -8.30833,7.93491 -13.1092,14.46965 -6.41754,16.41658 -5.95964,5.72202 -13.54689,11.9771 -9.29395,14.35435 -6.03283,8.6515 -13.53654,17.00545 -31.14486,23.31521 l -2.069506,0.17433 C 80.906939,282.69141 81.28021,271.57522 74.779884,262.9733 c 3.742128,-1.05118 -0.794804,-6.45395 -5.948672,-12.18099 z"
       sodipodi:nodetypes="ccccccccccccccccccccccccccccccccccccc" />
  </g>
</svg>
