<?xml version="1.0" encoding="UTF-8" standalone="no"?>
<svg
   xmlns:dc="http://purl.org/dc/elements/1.1/"
   xmlns:cc="http://creativecommons.org/ns#"
   xmlns:rdf="http://www.w3.org/1999/02/22-rdf-syntax-ns#"
   xmlns:svg="http://www.w3.org/2000/svg"
   xmlns="http://www.w3.org/2000/svg"
   xmlns:sodipodi="http://sodipodi.sourceforge.net/DTD/sodipodi-0.dtd"
   xmlns:inkscape="http://www.inkscape.org/namespaces/inkscape"
   width="1024"
   height="1024"
   viewBox="0 0 270.93333 270.93334"
   version="1.1"
   id="svg8"
   inkscape:version="1.0.2 (e86c870879, 2021-01-15)"
   sodipodi:docname="icon.svg">
  <defs
     id="defs2">
    <filter
       inkscape:collect="always"
       style="color-interpolation-filters:sRGB"
       id="filter6445"
       x="-0.058029194"
       width="1.1160584"
       y="-0.042404914"
       height="1.0848098">
      <feGaussianBlur
         inkscape:collect="always"
         stdDeviation="4.6531627"
         id="feGaussianBlur6447" />
    </filter>
  </defs>
  <sodipodi:namedview
     id="base"
     pagecolor="#ffffff"
     bordercolor="#666666"
     borderopacity="1.0"
     inkscape:pageopacity="0.0"
     inkscape:pageshadow="2"
     inkscape:zoom="0.35"
     inkscape:cx="362.74332"
     inkscape:cy="552.61409"
     inkscape:document-units="mm"
     inkscape:current-layer="layer1"
     inkscape:document-rotation="0"
     showgrid="false"
     units="px"
     inkscape:window-width="1362"
     inkscape:window-height="729"
     inkscape:window-x="0"
     inkscape:window-y="18"
     inkscape:window-maximized="0" />
  <metadata
     id="metadata5">
    <rdf:RDF>
      <cc:Work
         rdf:about="">
        <dc:format>image/svg+xml</dc:format>
        <dc:type
           rdf:resource="http://purl.org/dc/dcmitype/StillImage" />
        <dc:title></dc:title>
      </cc:Work>
    </rdf:RDF>
  </metadata>
  <g
     inkscape:label="Layer 1"
     inkscape:groupmode="layer"
     id="layer1">
    <g
       id="g6451"
       transform="translate(1.4369192,-1.6015759)">
      <path
         id="path6401"
         style="opacity:0.546943;fill:#000000;fill-opacity:1;stroke-width:0.0392378;stroke-linecap:round;filter:url(#filter6445)"
         d="m 166.15603,266.40173 c -14.57236,11.20969 -16.54222,-13.42214 -19.75714,-12.449 -7.55319,2.28648 -16.14279,18.65021 -23.75108,12.86664 -10.6263,-8.07746 -59.93142,-7.37881 -73.806815,-60.32522 C 27.820864,126.28462 117.88228,96.808437 132.66218,5.9761616 145.51158,80.346916 247.98792,74.065504 237.35272,200.72905 c -4.39615,52.35757 -56.62432,54.46273 -71.19669,65.67268 z"
         sodipodi:nodetypes="zssscsz" />
      <path
         id="rect2937"
         style="fill:#96c446;fill-opacity:1;stroke-width:0.0392378;stroke-linecap:round"
         d="m 159.7214,264.21419 c -14.57236,11.20969 -16.54222,-13.42214 -19.75714,-12.449 -7.55319,2.28648 -16.14279,18.65021 -23.75108,12.86664 -10.6263,-8.07746 -59.931455,-7.37881 -73.80685,-60.32522 C 21.386199,124.09708 111.44765,94.620924 126.22755,3.7886508 139.07695,78.159403 241.55329,71.877991 230.91809,198.54151 c -4.39615,52.35757 -56.62432,54.46273 -71.19669,65.67268 z"
         sodipodi:nodetypes="zssscsz" />
    </g>
    <g
       inkscape:label="Layer 1"
       id="layer1-62"
       transform="matrix(0.75503224,0,0,0.75503224,56.847349,38.236914)">
      <path
         id="rect1214-5"
         style="fill:#000000;fill-opacity:1;stroke:none;stroke-width:0.315988"
         d="m 97.050991,67.931115 c -1.978976,0.01106 -3.758861,0.289066 -5.102856,1.149571 -4.371221,2.798716 -15.877819,13.180213 -14.026726,31.838554 1.803692,18.1805 12.912069,17.47238 18.868317,12.8902 4.649194,-2.71491 12.870114,-2.53849 16.420574,0 5.95625,4.58218 17.06463,5.2903 18.86832,-12.8902 1.85109,-18.658341 -9.65551,-29.039838 -14.02673,-31.838554 -1.34399,-0.860505 -3.12388,-1.138511 -5.10286,-1.149571 -2.49238,-0.0139 -5.29617,0.388764 -7.94902,0.589482 -2.65284,-0.200715 -5.456631,-0.603436 -7.949019,-0.589482 z M 93.60718,117.56025 c -21.320666,16.40686 1.231345,58.9872 6.090761,65.41778 3.367979,0.96771 7.330069,1.10014 10.604149,0 4.85941,-6.43058 27.41142,-49.01092 6.09076,-65.41778 -7.66384,-5.31609 -14.82277,-4.88344 -22.78567,0 z m 7.41016,66.64574 c -0.31707,0.019 -0.5444,0.0667 -0.65317,0.15199 -4.588617,3.59048 -4.596694,8.56403 -1.350422,9.14921 4.128412,1.11601 7.998992,0.70939 11.972532,0 3.24627,-0.58518 3.23819,-5.55873 -1.35043,-9.14921 -0.10876,-0.0853 -0.3361,-0.13303 -0.65316,-0.15199 -2.88308,0.34502 -5.01727,0.43884 -7.96535,0 z m -2.046045,10.49472 c -0.412175,0.003 -0.727809,0.0382 -0.909534,0.11123 -38.306016,15.34561 -25.825855,68.69871 6.938249,83.88601 32.76411,-15.1873 45.24428,-68.5404 6.93825,-83.88601 -0.18172,-0.0727 -0.49735,-0.10807 -0.90953,-0.11123 -4.38924,0.83032 -7.98328,0.58951 -12.057435,0 z"
         sodipodi:nodetypes="sssccssscscccccccccccccccccc" />
      <path
         id="rect1344"
         style="fill:#000000;fill-opacity:1;stroke:none;stroke-width:0.221377"
         d="m 127.91017,76.071849 c 9.30767,-1.41337 18.24828,-1.285572 26.81737,0.402124 l 1.9091,2.478458 c 0.9353,5.437352 -19.3144,0.236486 -26.9803,0.853389 z"
         sodipodi:nodetypes="ccccc" />
      <path
         id="rect1347"
         style="fill:#000000;fill-opacity:1;stroke:none;stroke-width:0.221377"
         d="m 130.21059,26.903408 c -0.79719,-1.996787 2.11126,-3.571391 2.51951,-2.324914 7.26886,20.710738 25.63483,34.827503 24.59552,54.071145 l -1.82811,-2.538991 C 148.14468,49.756863 137.91734,47.041139 130.21059,26.903408 Z"
         sodipodi:nodetypes="ccccc" />
      <path
         id="rect1382"
         style="fill:#000000;fill-opacity:1;stroke:none;stroke-width:0.315988"
         d="m 122.1145,162.32577 c 6.70044,-3.45362 16.74596,-5.43967 25.2693,-4.81047 0,0 39.0453,18.29539 49.43463,28.4502 1.07846,1.05411 -1.5238,2.68063 -3.00004,2.37251 -12.3732,-2.58254 -45.63141,-25.01984 -45.63141,-25.01984 -8.20404,3.73245 -19.19492,2.3312 -28.08778,3.92134 z"
         sodipodi:nodetypes="ccssccc" />
      <path
         id="rect1382-0"
         style="fill:#000000;fill-opacity:1;stroke:none;stroke-width:0.315988"
         d="m 116.73023,175.16468 c 7.51887,-0.53844 21.25188,3.66951 28.84005,7.60182 4.26624,0.9887 27.95043,43.88022 33.5028,57.30327 0.57642,1.39351 -1.83715,2.02937 -3.07305,1.16524 -10.35882,-7.24296 -34.17358,-53.2128 -34.17358,-53.2128 -9.01089,0.20318 -18.73563,-6.27828 -27.5368,-8.31567 z"
         sodipodi:nodetypes="ccssccc" />
      <path
         id="rect1382-9"
         style="fill:#000000;fill-opacity:1;stroke:none;stroke-width:0.315988"
         d="m 126.51487,145.19236 c 7.5308,0.33223 21.16212,-2.51558 28.63969,-6.65429 0,0 27.8038,-32.95765 32.98928,-46.528551 0.53828,-1.408706 -2.50585,-1.796771 -3.71761,-0.899081 -10.15649,7.524055 -30.97091,41.821302 -30.97091,41.821302 -9.01308,0.0439 -17.81641,5.84148 -26.55845,8.11925 z"
         sodipodi:nodetypes="ccssccc" />
      <path
         id="rect1425"
         style="fill:#000000;fill-opacity:1;stroke:none;stroke-width:0.315988"
         d="m 112.04234,64.263145 c 2.56036,0.370714 5.39449,2.301132 4.80382,3.631957 -2.30225,-0.672688 -4.71451,-0.758785 -6.89754,-0.443268 -0.8424,-2.086485 -3.18944,-2.125873 -3.21022,-3.116821 0.16011,-0.999059 3.58099,-0.321334 5.30394,-0.07186 z"
         sodipodi:nodetypes="scccs" />
      <path
         id="path1439"
         style="fill:#000000;fill-opacity:1;stroke:none;stroke-width:0.221377"
         d="m 82.089838,76.071849 c -9.307665,-1.41337 -18.248272,-1.285572 -26.817363,0.402124 l -1.909105,2.478458 c -0.935293,5.437352 19.314401,0.236486 26.980306,0.853389 z"
         sodipodi:nodetypes="ccccc" />
      <path
         id="path1443"
         style="fill:#000000;fill-opacity:1;stroke:none;stroke-width:0.315988"
         d="m 87.885508,162.32577 c -6.700432,-3.45362 -16.745945,-5.43967 -25.269312,-4.81047 0,0 -39.045286,18.29539 -49.434626,28.4502 -1.078436,1.05411 1.523821,2.68063 3.000054,2.37251 12.373208,-2.58254 45.631425,-25.01984 45.631425,-25.01984 8.204029,3.73245 19.194906,2.3312 28.087768,3.92134 z"
         sodipodi:nodetypes="ccssccc" />
      <path
         id="path1445"
         style="fill:#000000;fill-opacity:1;stroke:none;stroke-width:0.315988"
         d="m 93.269777,175.16468 c -7.518866,-0.53844 -21.251878,3.66951 -28.840031,7.60182 -4.26625,0.9887 -27.950439,43.88022 -33.502824,57.30327 -0.576425,1.39351 1.837155,2.02937 3.073047,1.16524 10.358847,-7.24296 34.173604,-53.2128 34.173604,-53.2128 9.010882,0.20318 18.73562,-6.27828 27.536785,-8.31567 z"
         sodipodi:nodetypes="ccssccc" />
      <path
         id="path1447"
         style="fill:#000000;fill-opacity:1;stroke:none;stroke-width:0.315988"
         d="m 83.485137,145.19236 c -7.530798,0.33223 -21.162115,-2.51558 -28.639688,-6.65429 0,0 -27.803789,-32.95765 -32.98928,-46.528551 -0.538286,-1.408706 2.505849,-1.796771 3.7176,-0.899081 10.156488,7.524055 30.970937,41.821302 30.970937,41.821302 9.013054,0.0439 17.816399,5.84148 26.55844,8.11925 z"
         sodipodi:nodetypes="ccssccc" />
      <path
         id="path1449"
         style="fill:#000000;fill-opacity:1;stroke:none;stroke-width:0.315988"
         d="m 97.957669,64.263145 c -2.560354,0.370714 -5.394485,2.301132 -4.803812,3.631957 2.302248,-0.672688 4.714507,-0.758785 6.897533,-0.443268 0.8424,-2.086485 3.18944,-2.125873 3.21022,-3.116821 -0.16011,-0.999059 -3.580991,-0.321334 -5.303941,-0.07186 z"
         sodipodi:nodetypes="scccs" />
      <path
         id="path1497"
         style="fill:#000000;fill-opacity:1;stroke:none;stroke-width:0.221377"
         d="m 79.789425,26.903408 c 0.79719,-1.996787 -2.11126,-3.571391 -2.51951,-2.324914 -7.26886,20.710738 -25.63483,34.827503 -24.59552,54.071145 l 1.82811,-2.538991 c 7.35283,-26.353785 17.58017,-29.069509 25.28692,-49.20724 z"
         sodipodi:nodetypes="ccccc" />
    </g>
    <g
       id="g16910"
       transform="translate(-638.98692,96.359865)" />
  </g>
</svg>
